<svg width="940" height="800" viewBox="0 0 940 800" fill="none" xmlns="http://www.w3.org/2000/svg">
<rect width="940" height="800" fill="#009DA7"/>
<g filter="url(#filter0_d_12_3)">
<ellipse rx="202.974" ry="203.026" transform="matrix(0.866025 -0.5 0.866025 0.5 469.606 400)" fill="#0E2A54"/>
</g>
<g filter="url(#filter1_d_12_3)">
<path d="M444.499 443.849L444.486 385.734L545.143 385.742L545.154 433.25C545.155 439.108 536.931 443.856 526.785 443.855L444.499 443.849Z" fill="#C3DBFF"/>
<path d="M363.237 501.373C353.091 501.372 344.865 496.623 344.864 490.765L344.853 443.257L445.51 443.265L445.523 501.379L363.237 501.373Z" fill="#C3DBFF"/>
<path d="M344.853 443.841L344.842 396.334C344.841 390.476 353.065 385.728 363.211 385.728L445.497 385.734L445.51 443.849L344.853 443.841Z" fill="white"/>
<path d="M544.131 386.326L544.118 328.212L626.404 328.218C636.55 328.219 644.776 332.968 644.778 338.826L644.789 386.334L544.131 386.326Z" fill="#C3DBFF"/>
<path d="M444.486 386.318L444.475 338.811C444.474 332.953 452.698 328.205 462.844 328.205L545.13 328.212L545.143 386.326L444.486 386.318Z" fill="white"/>
</g>
<g filter="url(#filter2_d_12_3)">
<path d="M497.109 516.343L475.753 504.013L481.77 500.539L503.22 507.415L491.31 495.031L497.359 491.539L518.715 503.869L515.223 505.885L497.702 495.769L497.234 496.039L508.832 508.567L505.215 510.655L483.516 503.959L483.048 504.229L500.57 514.345L497.109 516.343ZM535.979 490.661L536.758 490.103L539.346 491.525C537.455 493.169 535.595 494.519 533.766 495.575C531.458 496.907 529.162 497.501 526.875 497.357C524.61 497.201 522.085 496.319 519.299 494.711C513.771 491.519 513.261 488.621 517.772 486.017C522.137 483.497 526.699 483.611 531.458 486.359L533.672 487.889L524.007 493.469C525.317 494.201 526.543 494.585 527.686 494.621C528.829 494.657 530.139 494.249 531.614 493.397C533.09 492.545 534.545 491.633 535.979 490.661ZM527.935 488.177C526.397 487.289 525.078 486.815 523.976 486.755C522.874 486.671 521.742 486.965 520.578 487.637C519.414 488.309 518.884 488.987 518.988 489.671C519.112 490.343 519.902 491.111 521.357 491.975L527.935 488.177ZM538.842 466.761L560.915 479.505L557.548 481.449L556.737 480.981C555.989 482.301 554.981 483.327 553.713 484.059C551.676 485.235 549.566 485.745 547.384 485.589C545.222 485.421 542.697 484.503 539.808 482.835C536.919 481.167 535.339 479.655 535.069 478.299C534.82 476.931 535.807 475.605 538.031 474.321C538.779 473.889 540.099 473.283 541.99 472.503L535.443 468.723L538.842 466.761ZM553.744 479.901L554.056 479.469L544.827 474.141C543.373 474.741 542.115 475.347 541.055 475.959C538.956 477.171 539.652 478.785 543.144 480.801C545.056 481.905 546.625 482.535 547.852 482.691C549.078 482.823 550.221 482.583 551.281 481.971C552.341 481.359 553.162 480.669 553.744 479.901ZM568.274 475.256L552.186 459.884L559.077 455.906L585.733 465.176L582.241 467.192L576.504 465.212L568.305 469.946L571.734 473.258L568.274 475.256ZM557.767 460.01L565.935 467.786L572.763 463.844L559.326 459.11L557.767 460.01ZM591.489 447.561C588.704 448.785 586.761 449.715 585.659 450.351C584.557 450.987 583.923 451.509 583.757 451.917C583.591 452.301 583.788 452.655 584.35 452.979C584.911 453.303 585.534 453.399 586.22 453.267C586.927 453.123 588.299 452.643 590.336 451.827C592.372 450.987 594.077 450.543 595.449 450.495C596.82 450.447 598.327 450.897 599.969 451.845C601.611 452.793 602.287 453.795 601.996 454.851C601.726 455.895 600.582 456.999 598.566 458.163C597.298 458.895 595.521 459.717 593.235 460.629L592.113 461.097L589.4 459.387C592.227 458.139 594.191 457.197 595.293 456.561C596.394 455.925 597.039 455.397 597.226 454.977C597.433 454.545 597.226 454.149 596.602 453.789C595.979 453.429 595.324 453.315 594.638 453.447C593.952 453.555 592.622 454.023 590.647 454.851C588.673 455.655 586.989 456.111 585.597 456.219C584.204 456.327 582.708 455.919 581.107 454.995C579.507 454.071 578.852 453.069 579.143 451.989C579.455 450.897 580.463 449.859 582.167 448.875C583.497 448.107 585.295 447.261 587.561 446.337L588.714 445.887L591.489 447.561ZM610.78 436.423C607.995 437.647 606.051 438.577 604.95 439.213C603.848 439.849 603.214 440.371 603.048 440.779C602.882 441.163 603.079 441.517 603.64 441.841C604.201 442.165 604.825 442.261 605.511 442.129C606.218 441.985 607.589 441.505 609.626 440.689C611.663 439.849 613.367 439.405 614.739 439.357C616.111 439.309 617.618 439.759 619.26 440.707C620.902 441.655 621.577 442.657 621.286 443.713C621.016 444.757 619.873 445.861 617.857 447.025C616.589 447.757 614.812 448.579 612.526 449.491L611.403 449.959L608.691 448.249C611.518 447.001 613.482 446.059 614.583 445.423C615.685 444.787 616.329 444.259 616.516 443.839C616.724 443.407 616.516 443.011 615.893 442.651C615.269 442.291 614.615 442.177 613.929 442.309C613.243 442.417 611.913 442.885 609.938 443.713C607.963 444.517 606.28 444.973 604.887 445.081C603.495 445.189 601.998 444.781 600.398 443.857C598.797 442.933 598.143 441.931 598.434 440.851C598.746 439.759 599.754 438.721 601.458 437.737C602.788 436.969 604.586 436.123 606.852 435.199L608.005 434.749L610.78 436.423ZM631.629 438.678L616.041 429.678L619.439 427.716L635.028 436.716L631.629 438.678ZM613.391 428.148L609.806 426.078L613.204 424.116L616.789 426.186L613.391 428.148ZM642.267 418.244C639.482 419.468 637.539 420.398 636.437 421.034C635.336 421.67 634.702 422.192 634.535 422.6C634.369 422.984 634.567 423.338 635.128 423.662C635.689 423.986 636.312 424.082 636.998 423.95C637.705 423.806 639.077 423.326 641.114 422.51C643.151 421.67 644.855 421.226 646.227 421.178C647.599 421.13 649.105 421.58 650.747 422.528C652.389 423.476 653.065 424.478 652.774 425.534C652.504 426.578 651.361 427.682 649.344 428.846C648.077 429.578 646.299 430.4 644.013 431.312L642.891 431.78L640.178 430.07C643.005 428.822 644.969 427.88 646.071 427.244C647.172 426.608 647.817 426.08 648.004 425.66C648.212 425.228 648.004 424.832 647.38 424.472C646.757 424.112 646.102 423.998 645.416 424.13C644.73 424.238 643.4 424.706 641.426 425.534C639.451 426.338 637.767 426.794 636.375 426.902C634.982 427.01 633.486 426.602 631.885 425.678C630.285 424.754 629.63 423.752 629.921 422.672C630.233 421.58 631.241 420.542 632.945 419.558C634.276 418.79 636.073 417.944 638.339 417.02L639.493 416.57L642.267 418.244ZM658.814 408.33L654.512 410.814L661.371 414.774C662.639 415.506 663.574 415.938 664.177 416.07C664.78 416.202 665.465 416.046 666.235 415.602L668.698 414.072L671.566 415.548C670.443 416.508 669.518 417.198 668.791 417.618C667.024 418.638 665.403 419.106 663.927 419.022C662.473 418.926 660.623 418.23 658.378 416.934L651.145 412.758L649.15 413.91L646.25 412.236L648.245 411.084L643.725 408.474L647.092 406.53L651.613 409.14L655.915 406.656L658.814 408.33Z" fill="white"/>
</g>
<defs>
<filter id="filter0_d_12_3" x="210.983" y="255.457" width="509.246" height="299.085" filterUnits="userSpaceOnUse" color-interpolation-filters="sRGB">
<feFlood flood-opacity="0" result="BackgroundImageFix"/>
<feColorMatrix in="SourceAlpha" type="matrix" values="0 0 0 0 0 0 0 0 0 0 0 0 0 0 0 0 0 0 127 0" result="hardAlpha"/>
<feMorphology radius="2" operator="dilate" in="SourceAlpha" result="effect1_dropShadow_12_3"/>
<feOffset dx="-4" dy="5"/>
<feGaussianBlur stdDeviation="2"/>
<feComposite in2="hardAlpha" operator="out"/>
<feColorMatrix type="matrix" values="0 0 0 0 0 0 0 0 0 0 0 0 0 0 0 0 0 0 0.25 0"/>
<feBlend mode="normal" in2="BackgroundImageFix" result="effect1_dropShadow_12_3"/>
<feBlend mode="normal" in="SourceGraphic" in2="effect1_dropShadow_12_3" result="shape"/>
</filter>
<filter id="filter1_d_12_3" x="333.842" y="328.205" width="310.946" height="184.174" filterUnits="userSpaceOnUse" color-interpolation-filters="sRGB">
<feFlood flood-opacity="0" result="BackgroundImageFix"/>
<feColorMatrix in="SourceAlpha" type="matrix" values="0 0 0 0 0 0 0 0 0 0 0 0 0 0 0 0 0 0 127 0" result="hardAlpha"/>
<feOffset dx="-7" dy="7"/>
<feGaussianBlur stdDeviation="2"/>
<feComposite in2="hardAlpha" operator="out"/>
<feColorMatrix type="matrix" values="0 0 0 0 0 0 0 0 0 0 0 0 0 0 0 0 0 0 0.5 0"/>
<feBlend mode="normal" in2="BackgroundImageFix" result="effect1_dropShadow_12_3"/>
<feBlend mode="normal" in="SourceGraphic" in2="effect1_dropShadow_12_3" result="shape"/>
</filter>
<filter id="filter2_d_12_3" x="467.036" y="402.84" width="204.935" height="122.701" filterUnits="userSpaceOnUse" color-interpolation-filters="sRGB">
<feFlood flood-opacity="0" result="BackgroundImageFix"/>
<feColorMatrix in="SourceAlpha" type="matrix" values="0 0 0 0 0 0 0 0 0 0 0 0 0 0 0 0 0 0 127 0" result="hardAlpha"/>
<feOffset dx="-4" dy="5"/>
<feGaussianBlur stdDeviation="2"/>
<feComposite in2="hardAlpha" operator="out"/>
<feColorMatrix type="matrix" values="0 0 0 0 0 0 0 0 0 0 0 0 0 0 0 0 0 0 0.5 0"/>
<feBlend mode="normal" in2="BackgroundImageFix" result="effect1_dropShadow_12_3"/>
<feBlend mode="normal" in="SourceGraphic" in2="effect1_dropShadow_12_3" result="shape"/>
</filter>
</defs>
</svg>
